<?xml version="1.0" encoding="utf-8" standalone="no"?>
<!DOCTYPE svg PUBLIC "-//W3C//DTD SVG 1.1//EN"
  "http://www.w3.org/Graphics/SVG/1.1/DTD/svg11.dtd">
<!-- Created with matplotlib (https://matplotlib.org/) -->
<svg height="345.6pt" version="1.1" viewBox="0 0 460.8 345.6" width="460.8pt" xmlns="http://www.w3.org/2000/svg" xmlns:xlink="http://www.w3.org/1999/xlink">
 <metadata>
  <rdf:RDF xmlns:cc="http://creativecommons.org/ns#" xmlns:dc="http://purl.org/dc/elements/1.1/" xmlns:rdf="http://www.w3.org/1999/02/22-rdf-syntax-ns#">
   <cc:Work>
    <dc:type rdf:resource="http://purl.org/dc/dcmitype/StillImage"/>
    <dc:date>2021-05-30T21:34:18.224753</dc:date>
    <dc:format>image/svg+xml</dc:format>
    <dc:creator>
     <cc:Agent>
      <dc:title>Matplotlib v3.3.2, https://matplotlib.org/</dc:title>
     </cc:Agent>
    </dc:creator>
   </cc:Work>
  </rdf:RDF>
 </metadata>
 <defs>
  <style type="text/css">*{stroke-linecap:butt;stroke-linejoin:round;}</style>
 </defs>
 <g id="figure_1">
  <g id="patch_1">
   <path d="M 0 345.6 
L 460.8 345.6 
L 460.8 0 
L 0 0 
z
" style="fill:#ffffff;"/>
  </g>
  <g id="axes_1">
   <g id="patch_2">
    <path d="M 57.6 307.584 
L 414.72 307.584 
L 414.72 41.472 
L 57.6 41.472 
z
" style="fill:#ffffff;"/>
   </g>
   <g id="matplotlib.axis_1">
    <g id="xtick_1">
     <g id="line2d_1">
      <defs>
       <path d="M 0 0 
L 0 3.5 
" id="m104c77ff4c" style="stroke:#000000;stroke-width:0.8;"/>
      </defs>
      <g>
       <use style="stroke:#000000;stroke-width:0.8;" x="73.832727" xlink:href="#m104c77ff4c" y="307.584"/>
      </g>
     </g>
     <g id="text_1">
      <!-- 0 -->
      <g transform="translate(70.651477 322.182437)scale(0.1 -0.1)">
       <defs>
        <path d="M 31.78125 66.40625 
Q 24.171875 66.40625 20.328125 58.90625 
Q 16.5 51.421875 16.5 36.375 
Q 16.5 21.390625 20.328125 13.890625 
Q 24.171875 6.390625 31.78125 6.390625 
Q 39.453125 6.390625 43.28125 13.890625 
Q 47.125 21.390625 47.125 36.375 
Q 47.125 51.421875 43.28125 58.90625 
Q 39.453125 66.40625 31.78125 66.40625 
z
M 31.78125 74.21875 
Q 44.046875 74.21875 50.515625 64.515625 
Q 56.984375 54.828125 56.984375 36.375 
Q 56.984375 17.96875 50.515625 8.265625 
Q 44.046875 -1.421875 31.78125 -1.421875 
Q 19.53125 -1.421875 13.0625 8.265625 
Q 6.59375 17.96875 6.59375 36.375 
Q 6.59375 54.828125 13.0625 64.515625 
Q 19.53125 74.21875 31.78125 74.21875 
z
" id="DejaVuSans-48"/>
       </defs>
       <use xlink:href="#DejaVuSans-48"/>
      </g>
     </g>
    </g>
    <g id="xtick_2">
     <g id="line2d_2">
      <g>
       <use style="stroke:#000000;stroke-width:0.8;" x="138.763636" xlink:href="#m104c77ff4c" y="307.584"/>
      </g>
     </g>
     <g id="text_2">
      <!-- 5 -->
      <g transform="translate(135.582386 322.182437)scale(0.1 -0.1)">
       <defs>
        <path d="M 10.796875 72.90625 
L 49.515625 72.90625 
L 49.515625 64.59375 
L 19.828125 64.59375 
L 19.828125 46.734375 
Q 21.96875 47.46875 24.109375 47.828125 
Q 26.265625 48.1875 28.421875 48.1875 
Q 40.625 48.1875 47.75 41.5 
Q 54.890625 34.8125 54.890625 23.390625 
Q 54.890625 11.625 47.5625 5.09375 
Q 40.234375 -1.421875 26.90625 -1.421875 
Q 22.3125 -1.421875 17.546875 -0.640625 
Q 12.796875 0.140625 7.71875 1.703125 
L 7.71875 11.625 
Q 12.109375 9.234375 16.796875 8.0625 
Q 21.484375 6.890625 26.703125 6.890625 
Q 35.15625 6.890625 40.078125 11.328125 
Q 45.015625 15.765625 45.015625 23.390625 
Q 45.015625 31 40.078125 35.4375 
Q 35.15625 39.890625 26.703125 39.890625 
Q 22.75 39.890625 18.8125 39.015625 
Q 14.890625 38.140625 10.796875 36.28125 
z
" id="DejaVuSans-53"/>
       </defs>
       <use xlink:href="#DejaVuSans-53"/>
      </g>
     </g>
    </g>
    <g id="xtick_3">
     <g id="line2d_3">
      <g>
       <use style="stroke:#000000;stroke-width:0.8;" x="203.694545" xlink:href="#m104c77ff4c" y="307.584"/>
      </g>
     </g>
     <g id="text_3">
      <!-- 10 -->
      <g transform="translate(197.332045 322.182437)scale(0.1 -0.1)">
       <defs>
        <path d="M 12.40625 8.296875 
L 28.515625 8.296875 
L 28.515625 63.921875 
L 10.984375 60.40625 
L 10.984375 69.390625 
L 28.421875 72.90625 
L 38.28125 72.90625 
L 38.28125 8.296875 
L 54.390625 8.296875 
L 54.390625 0 
L 12.40625 0 
z
" id="DejaVuSans-49"/>
       </defs>
       <use xlink:href="#DejaVuSans-49"/>
       <use x="63.623047" xlink:href="#DejaVuSans-48"/>
      </g>
     </g>
    </g>
    <g id="xtick_4">
     <g id="line2d_4">
      <g>
       <use style="stroke:#000000;stroke-width:0.8;" x="268.625455" xlink:href="#m104c77ff4c" y="307.584"/>
      </g>
     </g>
     <g id="text_4">
      <!-- 15 -->
      <g transform="translate(262.262955 322.182437)scale(0.1 -0.1)">
       <use xlink:href="#DejaVuSans-49"/>
       <use x="63.623047" xlink:href="#DejaVuSans-53"/>
      </g>
     </g>
    </g>
    <g id="xtick_5">
     <g id="line2d_5">
      <g>
       <use style="stroke:#000000;stroke-width:0.8;" x="333.556364" xlink:href="#m104c77ff4c" y="307.584"/>
      </g>
     </g>
     <g id="text_5">
      <!-- 20 -->
      <g transform="translate(327.193864 322.182437)scale(0.1 -0.1)">
       <defs>
        <path d="M 19.1875 8.296875 
L 53.609375 8.296875 
L 53.609375 0 
L 7.328125 0 
L 7.328125 8.296875 
Q 12.9375 14.109375 22.625 23.890625 
Q 32.328125 33.6875 34.8125 36.53125 
Q 39.546875 41.84375 41.421875 45.53125 
Q 43.3125 49.21875 43.3125 52.78125 
Q 43.3125 58.59375 39.234375 62.25 
Q 35.15625 65.921875 28.609375 65.921875 
Q 23.96875 65.921875 18.8125 64.3125 
Q 13.671875 62.703125 7.8125 59.421875 
L 7.8125 69.390625 
Q 13.765625 71.78125 18.9375 73 
Q 24.125 74.21875 28.421875 74.21875 
Q 39.75 74.21875 46.484375 68.546875 
Q 53.21875 62.890625 53.21875 53.421875 
Q 53.21875 48.921875 51.53125 44.890625 
Q 49.859375 40.875 45.40625 35.40625 
Q 44.1875 33.984375 37.640625 27.21875 
Q 31.109375 20.453125 19.1875 8.296875 
z
" id="DejaVuSans-50"/>
       </defs>
       <use xlink:href="#DejaVuSans-50"/>
       <use x="63.623047" xlink:href="#DejaVuSans-48"/>
      </g>
     </g>
    </g>
    <g id="xtick_6">
     <g id="line2d_6">
      <g>
       <use style="stroke:#000000;stroke-width:0.8;" x="398.487273" xlink:href="#m104c77ff4c" y="307.584"/>
      </g>
     </g>
     <g id="text_6">
      <!-- 25 -->
      <g transform="translate(392.124773 322.182437)scale(0.1 -0.1)">
       <use xlink:href="#DejaVuSans-50"/>
       <use x="63.623047" xlink:href="#DejaVuSans-53"/>
      </g>
     </g>
    </g>
    <g id="text_7">
     <!-- Time $t$ -->
     <g transform="translate(220.21 335.860562)scale(0.1 -0.1)">
      <defs>
       <path d="M -0.296875 72.90625 
L 61.375 72.90625 
L 61.375 64.59375 
L 35.5 64.59375 
L 35.5 0 
L 25.59375 0 
L 25.59375 64.59375 
L -0.296875 64.59375 
z
" id="DejaVuSans-84"/>
       <path d="M 9.421875 54.6875 
L 18.40625 54.6875 
L 18.40625 0 
L 9.421875 0 
z
M 9.421875 75.984375 
L 18.40625 75.984375 
L 18.40625 64.59375 
L 9.421875 64.59375 
z
" id="DejaVuSans-105"/>
       <path d="M 52 44.1875 
Q 55.375 50.25 60.0625 53.125 
Q 64.75 56 71.09375 56 
Q 79.640625 56 84.28125 50.015625 
Q 88.921875 44.046875 88.921875 33.015625 
L 88.921875 0 
L 79.890625 0 
L 79.890625 32.71875 
Q 79.890625 40.578125 77.09375 44.375 
Q 74.3125 48.1875 68.609375 48.1875 
Q 61.625 48.1875 57.5625 43.546875 
Q 53.515625 38.921875 53.515625 30.90625 
L 53.515625 0 
L 44.484375 0 
L 44.484375 32.71875 
Q 44.484375 40.625 41.703125 44.40625 
Q 38.921875 48.1875 33.109375 48.1875 
Q 26.21875 48.1875 22.15625 43.53125 
Q 18.109375 38.875 18.109375 30.90625 
L 18.109375 0 
L 9.078125 0 
L 9.078125 54.6875 
L 18.109375 54.6875 
L 18.109375 46.1875 
Q 21.1875 51.21875 25.484375 53.609375 
Q 29.78125 56 35.6875 56 
Q 41.65625 56 45.828125 52.96875 
Q 50 49.953125 52 44.1875 
z
" id="DejaVuSans-109"/>
       <path d="M 56.203125 29.59375 
L 56.203125 25.203125 
L 14.890625 25.203125 
Q 15.484375 15.921875 20.484375 11.0625 
Q 25.484375 6.203125 34.421875 6.203125 
Q 39.59375 6.203125 44.453125 7.46875 
Q 49.3125 8.734375 54.109375 11.28125 
L 54.109375 2.78125 
Q 49.265625 0.734375 44.1875 -0.34375 
Q 39.109375 -1.421875 33.890625 -1.421875 
Q 20.796875 -1.421875 13.15625 6.1875 
Q 5.515625 13.8125 5.515625 26.8125 
Q 5.515625 40.234375 12.765625 48.109375 
Q 20.015625 56 32.328125 56 
Q 43.359375 56 49.78125 48.890625 
Q 56.203125 41.796875 56.203125 29.59375 
z
M 47.21875 32.234375 
Q 47.125 39.59375 43.09375 43.984375 
Q 39.0625 48.390625 32.421875 48.390625 
Q 24.90625 48.390625 20.390625 44.140625 
Q 15.875 39.890625 15.1875 32.171875 
z
" id="DejaVuSans-101"/>
       <path id="DejaVuSans-32"/>
       <path d="M 42.28125 54.6875 
L 40.921875 47.703125 
L 23 47.703125 
L 17.1875 18.015625 
Q 16.890625 16.359375 16.75 15.234375 
Q 16.609375 14.109375 16.609375 13.484375 
Q 16.609375 10.359375 18.484375 8.9375 
Q 20.359375 7.515625 24.515625 7.515625 
L 33.59375 7.515625 
L 32.078125 0 
L 23.484375 0 
Q 15.484375 0 11.546875 3.125 
Q 7.625 6.25 7.625 12.59375 
Q 7.625 13.71875 7.765625 15.0625 
Q 7.90625 16.40625 8.203125 18.015625 
L 14.015625 47.703125 
L 6.390625 47.703125 
L 7.8125 54.6875 
L 15.28125 54.6875 
L 18.3125 70.21875 
L 27.296875 70.21875 
L 24.3125 54.6875 
z
" id="DejaVuSans-Oblique-116"/>
      </defs>
      <use transform="translate(0 0.015625)" xlink:href="#DejaVuSans-84"/>
      <use transform="translate(61.083984 0.015625)" xlink:href="#DejaVuSans-105"/>
      <use transform="translate(88.867188 0.015625)" xlink:href="#DejaVuSans-109"/>
      <use transform="translate(186.279297 0.015625)" xlink:href="#DejaVuSans-101"/>
      <use transform="translate(247.802734 0.015625)" xlink:href="#DejaVuSans-32"/>
      <use transform="translate(279.589844 0.015625)" xlink:href="#DejaVuSans-Oblique-116"/>
     </g>
    </g>
   </g>
   <g id="matplotlib.axis_2">
    <g id="ytick_1">
     <g id="line2d_7">
      <defs>
       <path d="M 0 0 
L -3.5 0 
" id="m190db9133d" style="stroke:#000000;stroke-width:0.8;"/>
      </defs>
      <g>
       <use style="stroke:#000000;stroke-width:0.8;" x="57.6" xlink:href="#m190db9133d" y="283.152431"/>
      </g>
     </g>
     <g id="text_8">
      <!-- −0.4 -->
      <g transform="translate(26.317187 286.95165)scale(0.1 -0.1)">
       <defs>
        <path d="M 10.59375 35.5 
L 73.1875 35.5 
L 73.1875 27.203125 
L 10.59375 27.203125 
z
" id="DejaVuSans-8722"/>
        <path d="M 10.6875 12.40625 
L 21 12.40625 
L 21 0 
L 10.6875 0 
z
" id="DejaVuSans-46"/>
        <path d="M 37.796875 64.3125 
L 12.890625 25.390625 
L 37.796875 25.390625 
z
M 35.203125 72.90625 
L 47.609375 72.90625 
L 47.609375 25.390625 
L 58.015625 25.390625 
L 58.015625 17.1875 
L 47.609375 17.1875 
L 47.609375 0 
L 37.796875 0 
L 37.796875 17.1875 
L 4.890625 17.1875 
L 4.890625 26.703125 
z
" id="DejaVuSans-52"/>
       </defs>
       <use xlink:href="#DejaVuSans-8722"/>
       <use x="83.789062" xlink:href="#DejaVuSans-48"/>
       <use x="147.412109" xlink:href="#DejaVuSans-46"/>
       <use x="179.199219" xlink:href="#DejaVuSans-52"/>
      </g>
     </g>
    </g>
    <g id="ytick_2">
     <g id="line2d_8">
      <g>
       <use style="stroke:#000000;stroke-width:0.8;" x="57.6" xlink:href="#m190db9133d" y="232.133669"/>
      </g>
     </g>
     <g id="text_9">
      <!-- −0.2 -->
      <g transform="translate(26.317187 235.932888)scale(0.1 -0.1)">
       <use xlink:href="#DejaVuSans-8722"/>
       <use x="83.789062" xlink:href="#DejaVuSans-48"/>
       <use x="147.412109" xlink:href="#DejaVuSans-46"/>
       <use x="179.199219" xlink:href="#DejaVuSans-50"/>
      </g>
     </g>
    </g>
    <g id="ytick_3">
     <g id="line2d_9">
      <g>
       <use style="stroke:#000000;stroke-width:0.8;" x="57.6" xlink:href="#m190db9133d" y="181.114906"/>
      </g>
     </g>
     <g id="text_10">
      <!-- 0.0 -->
      <g transform="translate(34.696875 184.914125)scale(0.1 -0.1)">
       <use xlink:href="#DejaVuSans-48"/>
       <use x="63.623047" xlink:href="#DejaVuSans-46"/>
       <use x="95.410156" xlink:href="#DejaVuSans-48"/>
      </g>
     </g>
    </g>
    <g id="ytick_4">
     <g id="line2d_10">
      <g>
       <use style="stroke:#000000;stroke-width:0.8;" x="57.6" xlink:href="#m190db9133d" y="130.096144"/>
      </g>
     </g>
     <g id="text_11">
      <!-- 0.2 -->
      <g transform="translate(34.696875 133.895363)scale(0.1 -0.1)">
       <use xlink:href="#DejaVuSans-48"/>
       <use x="63.623047" xlink:href="#DejaVuSans-46"/>
       <use x="95.410156" xlink:href="#DejaVuSans-50"/>
      </g>
     </g>
    </g>
    <g id="ytick_5">
     <g id="line2d_11">
      <g>
       <use style="stroke:#000000;stroke-width:0.8;" x="57.6" xlink:href="#m190db9133d" y="79.077381"/>
      </g>
     </g>
     <g id="text_12">
      <!-- 0.4 -->
      <g transform="translate(34.696875 82.8766)scale(0.1 -0.1)">
       <use xlink:href="#DejaVuSans-48"/>
       <use x="63.623047" xlink:href="#DejaVuSans-46"/>
       <use x="95.410156" xlink:href="#DejaVuSans-52"/>
      </g>
     </g>
    </g>
   </g>
   <g id="line2d_12">
    <path clip-path="url(#pfd2b047e21)" d="M 73.832727 53.568 
L 398.487273 53.568 
L 398.487273 53.568 
" style="fill:none;stroke:#1f77b4;stroke-linecap:square;stroke-width:1.5;"/>
   </g>
   <g id="line2d_13">
    <path clip-path="url(#pfd2b047e21)" d="M 73.832727 53.568 
L 398.487273 53.568 
L 398.487273 53.568 
" style="fill:none;stroke:#ff7f0e;stroke-linecap:square;stroke-width:1.5;"/>
   </g>
   <g id="line2d_14">
    <path clip-path="url(#pfd2b047e21)" d="M 73.832727 53.568 
L 74.092555 54.651001 
L 74.352382 56.992634 
L 74.742124 62.791232 
L 75.261779 74.527617 
L 75.911348 94.858312 
L 76.820744 131.346522 
L 79.808761 259.965593 
L 80.588244 281.246363 
L 81.107899 290.315886 
L 81.497641 294.192289 
L 81.757468 295.344179 
L 81.887382 295.488 
L 82.017296 295.344357 
L 82.277123 294.200846 
L 82.666865 290.386698 
L 83.18652 281.571687 
L 83.836089 265.163993 
L 84.615571 239.094078 
L 85.914709 186.782002 
L 87.473675 125.72032 
L 88.253157 102.220374 
L 88.902726 88.303243 
L 89.422381 81.460395 
L 89.812123 78.988269 
L 90.07195 78.629302 
L 90.201864 78.836174 
L 90.461692 80.01555 
L 90.851433 83.658485 
L 91.371088 91.837106 
L 92.020657 106.841299 
L 92.80014 130.470613 
L 94.229191 182.379605 
L 95.658243 231.961746 
L 96.437726 252.718642 
L 97.087295 264.880424 
L 97.60695 270.741005 
L 97.996691 272.746153 
L 98.126605 272.952257 
L 98.256519 272.927222 
L 98.516346 272.187787 
L 98.776174 270.541667 
L 99.165915 266.424715 
L 99.68557 258.046672 
L 100.335139 243.486485 
L 101.244536 217.293194 
L 104.362466 121.643927 
L 105.012035 109.224845 
L 105.53169 102.628779 
L 105.921432 99.785087 
L 106.181259 98.919763 
L 106.311173 98.798114 
L 106.441087 98.883423 
L 106.700915 99.670653 
L 107.090656 102.363695 
L 107.480397 106.797744 
L 108.000052 115.209329 
L 108.779535 132.383387 
L 109.818845 161.131912 
L 112.02738 223.852982 
L 112.806862 240.025719 
L 113.456431 249.288673 
L 113.976086 253.556361 
L 114.235914 254.590082 
L 114.495742 254.88095 
L 114.625655 254.748232 
L 114.885483 253.931387 
L 115.275224 251.355943 
L 115.794879 245.527152 
L 116.444448 234.790085 
L 117.223931 217.838114 
L 118.652983 180.510492 
L 120.082034 144.767363 
L 120.861517 129.764945 
L 121.511086 120.947314 
L 122.030741 116.672925 
L 122.420482 115.186192 
L 122.68031 115.026756 
L 122.940138 115.530117 
L 123.199965 116.686618 
L 123.589706 119.608996 
L 124.109362 125.589144 
L 124.75893 136.016204 
L 125.668327 154.818717 
L 128.786258 223.734198 
L 129.435827 232.727516 
L 129.955482 237.524097 
L 130.345223 239.609429 
L 130.605051 240.258333 
L 130.734965 240.358943 
L 130.864878 240.310559 
L 131.124706 239.769743 
L 131.514447 237.869036 
L 131.904189 234.713208 
L 132.423844 228.701915 
L 133.203326 216.392443 
L 134.242637 195.739212 
L 136.451171 150.550138 
L 137.230654 138.858016 
L 137.880223 132.138633 
L 138.399878 129.021452 
L 138.789619 128.070867 
L 138.919533 128.021357 
L 139.049447 128.105232 
L 139.309274 128.670099 
L 139.699016 130.490221 
L 140.218671 134.643821 
L 140.86824 142.326897 
L 141.647722 154.488082 
L 143.076774 181.329734 
L 144.505826 207.095947 
L 145.285308 217.938827 
L 145.934877 224.331406 
L 146.454532 227.448325 
L 146.844274 228.549716 
L 147.104101 228.685427 
L 147.363929 228.343907 
L 147.623756 227.531902 
L 148.013498 225.457932 
L 148.533153 221.189763 
L 149.182722 213.722925 
L 150.092118 200.22615 
L 153.210049 150.573409 
L 153.859618 144.061225 
L 154.379273 140.57363 
L 154.769015 139.044963 
L 155.028842 138.559143 
L 155.28867 138.502786 
L 155.548497 138.873462 
L 155.938239 140.214392 
L 156.32798 142.460141 
L 156.847635 146.755769 
L 157.627118 155.578224 
L 158.666428 170.415369 
L 160.874962 202.972396 
L 161.654445 211.424928 
L 162.304014 216.298814 
L 162.823669 218.575128 
L 163.21341 219.284518 
L 163.473238 219.276588 
L 163.733066 218.886631 
L 164.122807 217.600781 
L 164.642462 214.641285 
L 165.292031 209.143843 
L 166.071514 200.419793 
L 167.500565 181.118815 
L 168.929617 162.545073 
L 169.7091 154.708744 
L 170.358669 150.074593 
L 170.878324 147.80213 
L 171.268065 146.986873 
L 171.527893 146.87411 
L 171.78772 147.104958 
L 172.047548 147.674711 
L 172.437289 149.146248 
L 172.956944 152.192255 
L 173.606513 157.539024 
L 174.51591 167.226982 
L 177.63384 203.000445 
L 178.283409 207.715751 
L 178.803064 210.25128 
L 179.192806 211.371495 
L 179.452633 211.734671 
L 179.712461 211.788745 
L 179.972289 211.53533 
L 180.36203 210.589726 
L 180.751771 208.991851 
L 181.271426 205.92245 
L 181.920995 200.77648 
L 182.960306 190.361928 
L 185.428667 164.343305 
L 186.20815 158.545502 
L 186.857719 155.323746 
L 187.24746 154.177939 
L 187.637202 153.649218 
L 187.897029 153.642828 
L 188.156857 153.911538 
L 188.546598 154.819602 
L 189.066253 156.928018 
L 189.715822 160.861363 
L 190.495305 167.119527 
L 191.794443 179.692122 
L 193.353408 194.38668 
L 194.132891 200.049927 
L 194.78246 203.409118 
L 195.302115 205.065614 
L 195.691856 205.668603 
L 195.951684 205.760623 
L 196.211512 205.605244 
L 196.601253 204.916142 
L 196.990994 203.699547 
L 197.510649 201.315199 
L 198.160218 197.265915 
L 199.069615 190.104634 
L 201.927718 166.248936 
L 202.707201 162.018663 
L 203.226856 160.175513 
L 203.616597 159.354886 
L 204.006339 159.031654 
L 204.266166 159.093983 
L 204.525994 159.376356 
L 204.915735 160.202372 
L 205.43539 162.015549 
L 206.084959 165.303276 
L 206.994356 171.39601 
L 210.372114 196.065684 
L 211.021683 198.848695 
L 211.541338 200.254061 
L 211.931079 200.796583 
L 212.190907 200.909537 
L 212.450734 200.823515 
L 212.840476 200.326858 
L 213.230217 199.403796 
L 213.749872 197.554559 
L 214.399441 194.370943 
L 215.308838 188.683087 
L 218.296855 168.773061 
L 219.076337 165.510441 
L 219.595993 164.132571 
L 219.985734 163.553938 
L 220.375475 163.375843 
L 220.635303 163.479918 
L 221.025044 163.964538 
L 221.414786 164.829376 
L 221.934441 166.532372 
L 222.58401 169.433157 
L 223.493406 174.574799 
L 226.351509 191.761555 
L 227.130992 194.823372 
L 227.650647 196.163059 
L 228.040389 196.764026 
L 228.43013 197.007169 
L 228.689957 196.969287 
L 229.079699 196.616225 
L 229.46944 195.918618 
L 229.989095 194.486851 
L 230.638664 191.986058 
L 231.548061 187.470867 
L 234.665991 170.889418 
L 235.31556 168.719859 
L 235.835216 167.560215 
L 236.224957 167.053878 
L 236.614698 166.868701 
L 237.00444 167.005491 
L 237.394181 167.457815 
L 237.913836 168.527525 
L 238.563405 170.540743 
L 239.342888 173.7608 
L 240.642026 180.259387 
L 242.200991 187.892535 
L 243.110387 191.258393 
L 243.759956 192.880838 
L 244.279611 193.636181 
L 244.669353 193.869193 
L 245.059094 193.813253 
L 245.448836 193.472634 
L 245.968491 192.59488 
L 246.61806 190.878722 
L 247.397542 188.072728 
L 248.566766 182.909575 
L 250.385559 174.889871 
L 251.294956 171.918068 
L 251.944525 170.503517 
L 252.46418 169.86078 
L 252.853921 169.678224 
L 253.243663 169.754492 
L 253.633404 170.085172 
L 254.153059 170.903617 
L 254.802628 172.476324 
L 255.582111 175.022598 
L 256.881248 180.21485 
L 258.570128 186.82759 
L 259.34961 189.135398 
L 259.999179 190.483526 
L 260.518834 191.129438 
L 260.908576 191.346851 
L 261.298317 191.332139 
L 261.688058 191.088055 
L 262.207714 190.420134 
L 262.857283 189.08247 
L 263.636765 186.866246 
L 264.805989 182.746349 
L 266.754696 175.876607 
L 267.534179 173.839309 
L 268.183748 172.66252 
L 268.703403 172.110997 
L 269.093144 171.937226 
L 269.482886 171.971442 
L 269.872627 172.210704 
L 270.392282 172.835061 
L 271.041851 174.062141 
L 271.821334 176.074293 
L 273.120471 180.221058 
L 274.809351 185.564059 
L 275.718747 187.712229 
L 276.368316 188.73851 
L 276.887971 189.208192 
L 277.407626 189.349165 
L 277.797368 189.238052 
L 278.317023 188.809192 
L 278.836678 188.079989 
L 279.486247 186.797699 
L 280.395643 184.471323 
L 283.513574 175.864209 
L 284.293057 174.547525 
L 284.942626 173.914226 
L 285.462281 173.736242 
L 285.981936 173.854468 
L 286.501591 174.260082 
L 287.15116 175.139553 
L 287.930643 176.656665 
L 289.099867 179.562352 
L 291.178487 184.860561 
L 292.087884 186.533369 
L 292.737453 187.311608 
L 293.257108 187.649149 
L 293.776763 187.721881 
L 294.296418 187.530586 
L 294.816073 187.086546 
L 295.465642 186.209221 
L 296.245125 184.766375 
L 297.544263 181.785726 
L 299.233142 177.935236 
L 300.142538 176.382486 
L 300.792107 175.637962 
L 301.311763 175.294823 
L 301.831418 175.188141 
L 302.351073 175.318879 
L 302.870728 175.678535 
L 303.520297 176.422571 
L 304.29978 177.676505 
L 305.469004 180.037738 
L 307.547624 184.258525 
L 308.457021 185.558723 
L 309.10659 186.146307 
L 309.626245 186.38535 
L 310.1459 186.411262 
L 310.665555 186.225971 
L 311.315124 185.71382 
L 312.094607 184.739196 
L 313.133917 182.990249 
L 315.99202 177.864967 
L 316.771503 176.96859 
L 317.421072 176.515303 
L 318.070641 176.354938 
L 318.590296 176.441446 
L 319.239865 176.808103 
L 319.889434 177.435323 
L 320.79883 178.666063 
L 322.357795 181.28994 
L 323.786847 183.569867 
L 324.696244 184.636555 
L 325.475726 185.195812 
L 326.125295 185.376703 
L 326.774864 185.290329 
L 327.424433 184.946675 
L 328.203916 184.231957 
L 329.113312 183.072941 
L 332.750898 178.037295 
L 333.530381 177.499118 
L 334.17995 177.30381 
L 334.829519 177.348083 
L 335.479088 177.625042 
L 336.25857 178.23377 
L 337.167967 179.246203 
L 338.98676 181.721883 
L 340.285898 183.310938 
L 341.195294 184.091622 
L 341.974777 184.462446 
L 342.624346 184.538615 
L 343.273915 184.401277 
L 344.053397 183.972715 
L 344.962794 183.167237 
L 346.261932 181.653254 
L 348.340552 179.232269 
L 349.249949 178.502642 
L 350.029431 178.139709 
L 350.679 178.044619 
L 351.328569 178.14146 
L 352.108052 178.497087 
L 353.017448 179.19302 
L 354.316586 180.531589 
L 356.525121 182.835792 
L 357.434517 183.477995 
L 358.214 183.791291 
L 358.993482 183.860192 
L 359.772965 183.683648 
L 360.552448 183.282448 
L 361.591758 182.470083 
L 365.489172 179.043159 
L 366.398568 178.707924 
L 367.178051 178.657475 
L 367.957534 178.826501 
L 368.86693 179.273973 
L 370.036154 180.147816 
L 373.283999 182.790037 
L 374.193395 183.186936 
L 375.102792 183.324677 
L 375.882274 183.227748 
L 376.791671 182.881672 
L 377.830981 182.239769 
L 381.988222 179.368977 
L 382.897619 179.153371 
L 383.807015 179.179232 
L 384.716412 179.437604 
L 385.755722 179.969368 
L 387.444601 181.13463 
L 389.263394 182.309026 
L 390.302704 182.731464 
L 391.212101 182.884976 
L 392.121497 182.821584 
L 393.160808 182.501208 
L 394.459945 181.81787 
L 397.837704 179.862321 
L 398.487273 179.656262 
L 398.487273 179.656262 
" style="fill:none;stroke:#2ca02c;stroke-linecap:square;stroke-width:1.5;"/>
   </g>
   <g id="patch_3">
    <path d="M 57.6 307.584 
L 57.6 41.472 
" style="fill:none;stroke:#000000;stroke-linecap:square;stroke-linejoin:miter;stroke-width:0.8;"/>
   </g>
   <g id="patch_4">
    <path d="M 414.72 307.584 
L 414.72 41.472 
" style="fill:none;stroke:#000000;stroke-linecap:square;stroke-linejoin:miter;stroke-width:0.8;"/>
   </g>
   <g id="patch_5">
    <path d="M 57.6 307.584 
L 414.72 307.584 
" style="fill:none;stroke:#000000;stroke-linecap:square;stroke-linejoin:miter;stroke-width:0.8;"/>
   </g>
   <g id="patch_6">
    <path d="M 57.6 41.472 
L 414.72 41.472 
" style="fill:none;stroke:#000000;stroke-linecap:square;stroke-linejoin:miter;stroke-width:0.8;"/>
   </g>
   <g id="legend_1">
    <g id="patch_7">
     <path d="M 318.82 302.584 
L 407.72 302.584 
Q 409.72 302.584 409.72 300.584 
L 409.72 253.687125 
Q 409.72 251.687125 407.72 251.687125 
L 318.82 251.687125 
Q 316.82 251.687125 316.82 253.687125 
L 316.82 300.584 
Q 316.82 302.584 318.82 302.584 
z
" style="fill:#ffffff;opacity:0.8;stroke:#cccccc;stroke-linejoin:miter;"/>
    </g>
    <g id="line2d_15">
     <path d="M 320.82 259.785562 
L 340.82 259.785562 
" style="fill:none;stroke:#1f77b4;stroke-linecap:square;stroke-width:1.5;"/>
    </g>
    <g id="line2d_16"/>
    <g id="text_13">
     <!-- $\rho_{00}$ -->
     <g transform="translate(348.82 263.285562)scale(0.1 -0.1)">
      <defs>
       <path d="M 18.796875 44.921875 
Q 22.703125 49.90625 30.953125 54.296875 
Q 34.1875 56 43.0625 56 
Q 53.03125 56 57.71875 48.09375 
Q 62.40625 40.1875 59.90625 27.296875 
Q 57.375 14.40625 49.609375 6.484375 
Q 41.84375 -1.421875 31.890625 -1.421875 
Q 25.875 -1.421875 22.015625 0.984375 
Q 18.171875 3.328125 16.3125 8.203125 
L 10.640625 -20.796875 
L 1.609375 -20.796875 
L 10.890625 26.8125 
Q 13.09375 38.09375 18.796875 44.921875 
z
M 50.59375 27.296875 
Q 52.484375 37.203125 49.515625 42.875 
Q 46.53125 48.484375 39.40625 48.484375 
Q 32.28125 48.484375 27.09375 42.875 
Q 21.921875 37.203125 20.015625 27.296875 
Q 18.0625 17.390625 21.046875 11.71875 
Q 24.03125 6.109375 31.15625 6.109375 
Q 38.28125 6.109375 43.453125 11.71875 
Q 48.640625 17.390625 50.59375 27.296875 
z
" id="DejaVuSans-Oblique-961"/>
      </defs>
      <use xlink:href="#DejaVuSans-Oblique-961"/>
      <use transform="translate(63.476562 -16.40625)scale(0.7)" xlink:href="#DejaVuSans-48"/>
      <use transform="translate(108.012695 -16.40625)scale(0.7)" xlink:href="#DejaVuSans-48"/>
     </g>
    </g>
    <g id="line2d_17">
     <path d="M 320.82 274.484 
L 340.82 274.484 
" style="fill:none;stroke:#ff7f0e;stroke-linecap:square;stroke-width:1.5;"/>
    </g>
    <g id="line2d_18"/>
    <g id="text_14">
     <!-- $\rho_{11}$ -->
     <g transform="translate(348.82 277.984)scale(0.1 -0.1)">
      <use xlink:href="#DejaVuSans-Oblique-961"/>
      <use transform="translate(63.476562 -16.40625)scale(0.7)" xlink:href="#DejaVuSans-49"/>
      <use transform="translate(108.012695 -16.40625)scale(0.7)" xlink:href="#DejaVuSans-49"/>
     </g>
    </g>
    <g id="line2d_19">
     <path d="M 320.82 291.084 
L 340.82 291.084 
" style="fill:none;stroke:#2ca02c;stroke-linecap:square;stroke-width:1.5;"/>
    </g>
    <g id="line2d_20"/>
    <g id="text_15">
     <!-- $\frac{1}{2}(\rho_{01}+\rho_{10})$ -->
     <g transform="translate(348.82 294.584)scale(0.1 -0.1)">
      <defs>
       <path d="M 31 75.875 
Q 24.46875 64.65625 21.28125 53.65625 
Q 18.109375 42.671875 18.109375 31.390625 
Q 18.109375 20.125 21.3125 9.0625 
Q 24.515625 -2 31 -13.1875 
L 23.1875 -13.1875 
Q 15.875 -1.703125 12.234375 9.375 
Q 8.59375 20.453125 8.59375 31.390625 
Q 8.59375 42.28125 12.203125 53.3125 
Q 15.828125 64.359375 23.1875 75.875 
z
" id="DejaVuSans-40"/>
       <path d="M 46 62.703125 
L 46 35.5 
L 73.1875 35.5 
L 73.1875 27.203125 
L 46 27.203125 
L 46 0 
L 37.796875 0 
L 37.796875 27.203125 
L 10.59375 27.203125 
L 10.59375 35.5 
L 37.796875 35.5 
L 37.796875 62.703125 
z
" id="DejaVuSans-43"/>
       <path d="M 8.015625 75.875 
L 15.828125 75.875 
Q 23.140625 64.359375 26.78125 53.3125 
Q 30.421875 42.28125 30.421875 31.390625 
Q 30.421875 20.453125 26.78125 9.375 
Q 23.140625 -1.703125 15.828125 -13.1875 
L 8.015625 -13.1875 
Q 14.5 -2 17.703125 9.0625 
Q 20.90625 20.125 20.90625 31.390625 
Q 20.90625 42.671875 17.703125 53.65625 
Q 14.5 64.65625 8.015625 75.875 
z
" id="DejaVuSans-41"/>
      </defs>
      <use transform="translate(0 43.965625)scale(0.7)" xlink:href="#DejaVuSans-49"/>
      <use transform="translate(0 -39.2375)scale(0.7)" xlink:href="#DejaVuSans-50"/>
      <use transform="translate(57.036133 0.16875)" xlink:href="#DejaVuSans-40"/>
      <use transform="translate(96.049805 0.16875)" xlink:href="#DejaVuSans-Oblique-961"/>
      <use transform="translate(159.526367 -16.2375)scale(0.7)" xlink:href="#DejaVuSans-48"/>
      <use transform="translate(204.0625 -16.2375)scale(0.7)" xlink:href="#DejaVuSans-49"/>
      <use transform="translate(270.81543 0.16875)" xlink:href="#DejaVuSans-43"/>
      <use transform="translate(374.086914 0.16875)" xlink:href="#DejaVuSans-Oblique-961"/>
      <use transform="translate(437.563477 -16.2375)scale(0.7)" xlink:href="#DejaVuSans-49"/>
      <use transform="translate(482.099609 -16.2375)scale(0.7)" xlink:href="#DejaVuSans-48"/>
      <use transform="translate(529.370117 0.16875)" xlink:href="#DejaVuSans-41"/>
      <path d="M 0 18.965625 
L 0 25.215625 
L 44.536133 25.215625 
L 44.536133 18.965625 
L 0 18.965625 
z
"/>
     </g>
    </g>
   </g>
  </g>
 </g>
 <defs>
  <clipPath id="pfd2b047e21">
   <rect height="266.112" width="357.12" x="57.6" y="41.472"/>
  </clipPath>
 </defs>
</svg>
