<?xml version="1.0" encoding="utf-8" standalone="no"?>
<!DOCTYPE svg PUBLIC "-//W3C//DTD SVG 1.1//EN"
  "http://www.w3.org/Graphics/SVG/1.1/DTD/svg11.dtd">
<!-- Created with matplotlib (https://matplotlib.org/) -->
<svg height="345.6pt" version="1.1" viewBox="0 0 460.8 345.6" width="460.8pt" xmlns="http://www.w3.org/2000/svg" xmlns:xlink="http://www.w3.org/1999/xlink">
 <metadata>
  <rdf:RDF xmlns:cc="http://creativecommons.org/ns#" xmlns:dc="http://purl.org/dc/elements/1.1/" xmlns:rdf="http://www.w3.org/1999/02/22-rdf-syntax-ns#">
   <cc:Work>
    <dc:type rdf:resource="http://purl.org/dc/dcmitype/StillImage"/>
    <dc:date>2021-06-06T23:05:37.913835</dc:date>
    <dc:format>image/svg+xml</dc:format>
    <dc:creator>
     <cc:Agent>
      <dc:title>Matplotlib v3.3.2, https://matplotlib.org/</dc:title>
     </cc:Agent>
    </dc:creator>
   </cc:Work>
  </rdf:RDF>
 </metadata>
 <defs>
  <style type="text/css">*{stroke-linecap:butt;stroke-linejoin:round;}</style>
 </defs>
 <g id="figure_1">
  <g id="patch_1">
   <path d="M 0 345.6 
L 460.8 345.6 
L 460.8 0 
L 0 0 
z
" style="fill:#ffffff;"/>
  </g>
  <g id="axes_1">
   <g id="patch_2">
    <path d="M 57.6 307.584 
L 414.72 307.584 
L 414.72 41.472 
L 57.6 41.472 
z
" style="fill:#ffffff;"/>
   </g>
   <g id="matplotlib.axis_1">
    <g id="xtick_1">
     <g id="line2d_1">
      <defs>
       <path d="M 0 0 
L 0 3.5 
" id="mc020db5762" style="stroke:#000000;stroke-width:0.8;"/>
      </defs>
      <g>
       <use style="stroke:#000000;stroke-width:0.8;" x="73.832727" xlink:href="#mc020db5762" y="307.584"/>
      </g>
     </g>
     <g id="text_1">
      <!-- 0 -->
      <g transform="translate(70.651477 322.182437)scale(0.1 -0.1)">
       <defs>
        <path d="M 31.78125 66.40625 
Q 24.171875 66.40625 20.328125 58.90625 
Q 16.5 51.421875 16.5 36.375 
Q 16.5 21.390625 20.328125 13.890625 
Q 24.171875 6.390625 31.78125 6.390625 
Q 39.453125 6.390625 43.28125 13.890625 
Q 47.125 21.390625 47.125 36.375 
Q 47.125 51.421875 43.28125 58.90625 
Q 39.453125 66.40625 31.78125 66.40625 
z
M 31.78125 74.21875 
Q 44.046875 74.21875 50.515625 64.515625 
Q 56.984375 54.828125 56.984375 36.375 
Q 56.984375 17.96875 50.515625 8.265625 
Q 44.046875 -1.421875 31.78125 -1.421875 
Q 19.53125 -1.421875 13.0625 8.265625 
Q 6.59375 17.96875 6.59375 36.375 
Q 6.59375 54.828125 13.0625 64.515625 
Q 19.53125 74.21875 31.78125 74.21875 
z
" id="DejaVuSans-48"/>
       </defs>
       <use xlink:href="#DejaVuSans-48"/>
      </g>
     </g>
    </g>
    <g id="xtick_2">
     <g id="line2d_2">
      <g>
       <use style="stroke:#000000;stroke-width:0.8;" x="138.763636" xlink:href="#mc020db5762" y="307.584"/>
      </g>
     </g>
     <g id="text_2">
      <!-- 5 -->
      <g transform="translate(135.582386 322.182437)scale(0.1 -0.1)">
       <defs>
        <path d="M 10.796875 72.90625 
L 49.515625 72.90625 
L 49.515625 64.59375 
L 19.828125 64.59375 
L 19.828125 46.734375 
Q 21.96875 47.46875 24.109375 47.828125 
Q 26.265625 48.1875 28.421875 48.1875 
Q 40.625 48.1875 47.75 41.5 
Q 54.890625 34.8125 54.890625 23.390625 
Q 54.890625 11.625 47.5625 5.09375 
Q 40.234375 -1.421875 26.90625 -1.421875 
Q 22.3125 -1.421875 17.546875 -0.640625 
Q 12.796875 0.140625 7.71875 1.703125 
L 7.71875 11.625 
Q 12.109375 9.234375 16.796875 8.0625 
Q 21.484375 6.890625 26.703125 6.890625 
Q 35.15625 6.890625 40.078125 11.328125 
Q 45.015625 15.765625 45.015625 23.390625 
Q 45.015625 31 40.078125 35.4375 
Q 35.15625 39.890625 26.703125 39.890625 
Q 22.75 39.890625 18.8125 39.015625 
Q 14.890625 38.140625 10.796875 36.28125 
z
" id="DejaVuSans-53"/>
       </defs>
       <use xlink:href="#DejaVuSans-53"/>
      </g>
     </g>
    </g>
    <g id="xtick_3">
     <g id="line2d_3">
      <g>
       <use style="stroke:#000000;stroke-width:0.8;" x="203.694545" xlink:href="#mc020db5762" y="307.584"/>
      </g>
     </g>
     <g id="text_3">
      <!-- 10 -->
      <g transform="translate(197.332045 322.182437)scale(0.1 -0.1)">
       <defs>
        <path d="M 12.40625 8.296875 
L 28.515625 8.296875 
L 28.515625 63.921875 
L 10.984375 60.40625 
L 10.984375 69.390625 
L 28.421875 72.90625 
L 38.28125 72.90625 
L 38.28125 8.296875 
L 54.390625 8.296875 
L 54.390625 0 
L 12.40625 0 
z
" id="DejaVuSans-49"/>
       </defs>
       <use xlink:href="#DejaVuSans-49"/>
       <use x="63.623047" xlink:href="#DejaVuSans-48"/>
      </g>
     </g>
    </g>
    <g id="xtick_4">
     <g id="line2d_4">
      <g>
       <use style="stroke:#000000;stroke-width:0.8;" x="268.625455" xlink:href="#mc020db5762" y="307.584"/>
      </g>
     </g>
     <g id="text_4">
      <!-- 15 -->
      <g transform="translate(262.262955 322.182437)scale(0.1 -0.1)">
       <use xlink:href="#DejaVuSans-49"/>
       <use x="63.623047" xlink:href="#DejaVuSans-53"/>
      </g>
     </g>
    </g>
    <g id="xtick_5">
     <g id="line2d_5">
      <g>
       <use style="stroke:#000000;stroke-width:0.8;" x="333.556364" xlink:href="#mc020db5762" y="307.584"/>
      </g>
     </g>
     <g id="text_5">
      <!-- 20 -->
      <g transform="translate(327.193864 322.182437)scale(0.1 -0.1)">
       <defs>
        <path d="M 19.1875 8.296875 
L 53.609375 8.296875 
L 53.609375 0 
L 7.328125 0 
L 7.328125 8.296875 
Q 12.9375 14.109375 22.625 23.890625 
Q 32.328125 33.6875 34.8125 36.53125 
Q 39.546875 41.84375 41.421875 45.53125 
Q 43.3125 49.21875 43.3125 52.78125 
Q 43.3125 58.59375 39.234375 62.25 
Q 35.15625 65.921875 28.609375 65.921875 
Q 23.96875 65.921875 18.8125 64.3125 
Q 13.671875 62.703125 7.8125 59.421875 
L 7.8125 69.390625 
Q 13.765625 71.78125 18.9375 73 
Q 24.125 74.21875 28.421875 74.21875 
Q 39.75 74.21875 46.484375 68.546875 
Q 53.21875 62.890625 53.21875 53.421875 
Q 53.21875 48.921875 51.53125 44.890625 
Q 49.859375 40.875 45.40625 35.40625 
Q 44.1875 33.984375 37.640625 27.21875 
Q 31.109375 20.453125 19.1875 8.296875 
z
" id="DejaVuSans-50"/>
       </defs>
       <use xlink:href="#DejaVuSans-50"/>
       <use x="63.623047" xlink:href="#DejaVuSans-48"/>
      </g>
     </g>
    </g>
    <g id="xtick_6">
     <g id="line2d_6">
      <g>
       <use style="stroke:#000000;stroke-width:0.8;" x="398.487273" xlink:href="#mc020db5762" y="307.584"/>
      </g>
     </g>
     <g id="text_6">
      <!-- 25 -->
      <g transform="translate(392.124773 322.182437)scale(0.1 -0.1)">
       <use xlink:href="#DejaVuSans-50"/>
       <use x="63.623047" xlink:href="#DejaVuSans-53"/>
      </g>
     </g>
    </g>
    <g id="text_7">
     <!-- Time $t$ -->
     <g transform="translate(220.21 335.860562)scale(0.1 -0.1)">
      <defs>
       <path d="M -0.296875 72.90625 
L 61.375 72.90625 
L 61.375 64.59375 
L 35.5 64.59375 
L 35.5 0 
L 25.59375 0 
L 25.59375 64.59375 
L -0.296875 64.59375 
z
" id="DejaVuSans-84"/>
       <path d="M 9.421875 54.6875 
L 18.40625 54.6875 
L 18.40625 0 
L 9.421875 0 
z
M 9.421875 75.984375 
L 18.40625 75.984375 
L 18.40625 64.59375 
L 9.421875 64.59375 
z
" id="DejaVuSans-105"/>
       <path d="M 52 44.1875 
Q 55.375 50.25 60.0625 53.125 
Q 64.75 56 71.09375 56 
Q 79.640625 56 84.28125 50.015625 
Q 88.921875 44.046875 88.921875 33.015625 
L 88.921875 0 
L 79.890625 0 
L 79.890625 32.71875 
Q 79.890625 40.578125 77.09375 44.375 
Q 74.3125 48.1875 68.609375 48.1875 
Q 61.625 48.1875 57.5625 43.546875 
Q 53.515625 38.921875 53.515625 30.90625 
L 53.515625 0 
L 44.484375 0 
L 44.484375 32.71875 
Q 44.484375 40.625 41.703125 44.40625 
Q 38.921875 48.1875 33.109375 48.1875 
Q 26.21875 48.1875 22.15625 43.53125 
Q 18.109375 38.875 18.109375 30.90625 
L 18.109375 0 
L 9.078125 0 
L 9.078125 54.6875 
L 18.109375 54.6875 
L 18.109375 46.1875 
Q 21.1875 51.21875 25.484375 53.609375 
Q 29.78125 56 35.6875 56 
Q 41.65625 56 45.828125 52.96875 
Q 50 49.953125 52 44.1875 
z
" id="DejaVuSans-109"/>
       <path d="M 56.203125 29.59375 
L 56.203125 25.203125 
L 14.890625 25.203125 
Q 15.484375 15.921875 20.484375 11.0625 
Q 25.484375 6.203125 34.421875 6.203125 
Q 39.59375 6.203125 44.453125 7.46875 
Q 49.3125 8.734375 54.109375 11.28125 
L 54.109375 2.78125 
Q 49.265625 0.734375 44.1875 -0.34375 
Q 39.109375 -1.421875 33.890625 -1.421875 
Q 20.796875 -1.421875 13.15625 6.1875 
Q 5.515625 13.8125 5.515625 26.8125 
Q 5.515625 40.234375 12.765625 48.109375 
Q 20.015625 56 32.328125 56 
Q 43.359375 56 49.78125 48.890625 
Q 56.203125 41.796875 56.203125 29.59375 
z
M 47.21875 32.234375 
Q 47.125 39.59375 43.09375 43.984375 
Q 39.0625 48.390625 32.421875 48.390625 
Q 24.90625 48.390625 20.390625 44.140625 
Q 15.875 39.890625 15.1875 32.171875 
z
" id="DejaVuSans-101"/>
       <path id="DejaVuSans-32"/>
       <path d="M 42.28125 54.6875 
L 40.921875 47.703125 
L 23 47.703125 
L 17.1875 18.015625 
Q 16.890625 16.359375 16.75 15.234375 
Q 16.609375 14.109375 16.609375 13.484375 
Q 16.609375 10.359375 18.484375 8.9375 
Q 20.359375 7.515625 24.515625 7.515625 
L 33.59375 7.515625 
L 32.078125 0 
L 23.484375 0 
Q 15.484375 0 11.546875 3.125 
Q 7.625 6.25 7.625 12.59375 
Q 7.625 13.71875 7.765625 15.0625 
Q 7.90625 16.40625 8.203125 18.015625 
L 14.015625 47.703125 
L 6.390625 47.703125 
L 7.8125 54.6875 
L 15.28125 54.6875 
L 18.3125 70.21875 
L 27.296875 70.21875 
L 24.3125 54.6875 
z
" id="DejaVuSans-Oblique-116"/>
      </defs>
      <use transform="translate(0 0.015625)" xlink:href="#DejaVuSans-84"/>
      <use transform="translate(61.083984 0.015625)" xlink:href="#DejaVuSans-105"/>
      <use transform="translate(88.867188 0.015625)" xlink:href="#DejaVuSans-109"/>
      <use transform="translate(186.279297 0.015625)" xlink:href="#DejaVuSans-101"/>
      <use transform="translate(247.802734 0.015625)" xlink:href="#DejaVuSans-32"/>
      <use transform="translate(279.589844 0.015625)" xlink:href="#DejaVuSans-Oblique-116"/>
     </g>
    </g>
   </g>
   <g id="matplotlib.axis_2">
    <g id="ytick_1">
     <g id="line2d_7">
      <defs>
       <path d="M 0 0 
L -3.5 0 
" id="m4cae728a09" style="stroke:#000000;stroke-width:0.8;"/>
      </defs>
      <g>
       <use style="stroke:#000000;stroke-width:0.8;" x="57.6" xlink:href="#m4cae728a09" y="295.672831"/>
      </g>
     </g>
     <g id="text_8">
      <!-- 0.0 -->
      <g transform="translate(34.696875 299.47205)scale(0.1 -0.1)">
       <defs>
        <path d="M 10.6875 12.40625 
L 21 12.40625 
L 21 0 
L 10.6875 0 
z
" id="DejaVuSans-46"/>
       </defs>
       <use xlink:href="#DejaVuSans-48"/>
       <use x="63.623047" xlink:href="#DejaVuSans-46"/>
       <use x="95.410156" xlink:href="#DejaVuSans-48"/>
      </g>
     </g>
    </g>
    <g id="ytick_2">
     <g id="line2d_8">
      <g>
       <use style="stroke:#000000;stroke-width:0.8;" x="57.6" xlink:href="#m4cae728a09" y="247.251865"/>
      </g>
     </g>
     <g id="text_9">
      <!-- 0.2 -->
      <g transform="translate(34.696875 251.051084)scale(0.1 -0.1)">
       <use xlink:href="#DejaVuSans-48"/>
       <use x="63.623047" xlink:href="#DejaVuSans-46"/>
       <use x="95.410156" xlink:href="#DejaVuSans-50"/>
      </g>
     </g>
    </g>
    <g id="ytick_3">
     <g id="line2d_9">
      <g>
       <use style="stroke:#000000;stroke-width:0.8;" x="57.6" xlink:href="#m4cae728a09" y="198.830899"/>
      </g>
     </g>
     <g id="text_10">
      <!-- 0.4 -->
      <g transform="translate(34.696875 202.630118)scale(0.1 -0.1)">
       <defs>
        <path d="M 37.796875 64.3125 
L 12.890625 25.390625 
L 37.796875 25.390625 
z
M 35.203125 72.90625 
L 47.609375 72.90625 
L 47.609375 25.390625 
L 58.015625 25.390625 
L 58.015625 17.1875 
L 47.609375 17.1875 
L 47.609375 0 
L 37.796875 0 
L 37.796875 17.1875 
L 4.890625 17.1875 
L 4.890625 26.703125 
z
" id="DejaVuSans-52"/>
       </defs>
       <use xlink:href="#DejaVuSans-48"/>
       <use x="63.623047" xlink:href="#DejaVuSans-46"/>
       <use x="95.410156" xlink:href="#DejaVuSans-52"/>
      </g>
     </g>
    </g>
    <g id="ytick_4">
     <g id="line2d_10">
      <g>
       <use style="stroke:#000000;stroke-width:0.8;" x="57.6" xlink:href="#m4cae728a09" y="150.409933"/>
      </g>
     </g>
     <g id="text_11">
      <!-- 0.6 -->
      <g transform="translate(34.696875 154.209151)scale(0.1 -0.1)">
       <defs>
        <path d="M 33.015625 40.375 
Q 26.375 40.375 22.484375 35.828125 
Q 18.609375 31.296875 18.609375 23.390625 
Q 18.609375 15.53125 22.484375 10.953125 
Q 26.375 6.390625 33.015625 6.390625 
Q 39.65625 6.390625 43.53125 10.953125 
Q 47.40625 15.53125 47.40625 23.390625 
Q 47.40625 31.296875 43.53125 35.828125 
Q 39.65625 40.375 33.015625 40.375 
z
M 52.59375 71.296875 
L 52.59375 62.3125 
Q 48.875 64.0625 45.09375 64.984375 
Q 41.3125 65.921875 37.59375 65.921875 
Q 27.828125 65.921875 22.671875 59.328125 
Q 17.53125 52.734375 16.796875 39.40625 
Q 19.671875 43.65625 24.015625 45.921875 
Q 28.375 48.1875 33.59375 48.1875 
Q 44.578125 48.1875 50.953125 41.515625 
Q 57.328125 34.859375 57.328125 23.390625 
Q 57.328125 12.15625 50.6875 5.359375 
Q 44.046875 -1.421875 33.015625 -1.421875 
Q 20.359375 -1.421875 13.671875 8.265625 
Q 6.984375 17.96875 6.984375 36.375 
Q 6.984375 53.65625 15.1875 63.9375 
Q 23.390625 74.21875 37.203125 74.21875 
Q 40.921875 74.21875 44.703125 73.484375 
Q 48.484375 72.75 52.59375 71.296875 
z
" id="DejaVuSans-54"/>
       </defs>
       <use xlink:href="#DejaVuSans-48"/>
       <use x="63.623047" xlink:href="#DejaVuSans-46"/>
       <use x="95.410156" xlink:href="#DejaVuSans-54"/>
      </g>
     </g>
    </g>
    <g id="ytick_5">
     <g id="line2d_11">
      <g>
       <use style="stroke:#000000;stroke-width:0.8;" x="57.6" xlink:href="#m4cae728a09" y="101.988966"/>
      </g>
     </g>
     <g id="text_12">
      <!-- 0.8 -->
      <g transform="translate(34.696875 105.788185)scale(0.1 -0.1)">
       <defs>
        <path d="M 31.78125 34.625 
Q 24.75 34.625 20.71875 30.859375 
Q 16.703125 27.09375 16.703125 20.515625 
Q 16.703125 13.921875 20.71875 10.15625 
Q 24.75 6.390625 31.78125 6.390625 
Q 38.8125 6.390625 42.859375 10.171875 
Q 46.921875 13.96875 46.921875 20.515625 
Q 46.921875 27.09375 42.890625 30.859375 
Q 38.875 34.625 31.78125 34.625 
z
M 21.921875 38.8125 
Q 15.578125 40.375 12.03125 44.71875 
Q 8.5 49.078125 8.5 55.328125 
Q 8.5 64.0625 14.71875 69.140625 
Q 20.953125 74.21875 31.78125 74.21875 
Q 42.671875 74.21875 48.875 69.140625 
Q 55.078125 64.0625 55.078125 55.328125 
Q 55.078125 49.078125 51.53125 44.71875 
Q 48 40.375 41.703125 38.8125 
Q 48.828125 37.15625 52.796875 32.3125 
Q 56.78125 27.484375 56.78125 20.515625 
Q 56.78125 9.90625 50.3125 4.234375 
Q 43.84375 -1.421875 31.78125 -1.421875 
Q 19.734375 -1.421875 13.25 4.234375 
Q 6.78125 9.90625 6.78125 20.515625 
Q 6.78125 27.484375 10.78125 32.3125 
Q 14.796875 37.15625 21.921875 38.8125 
z
M 18.3125 54.390625 
Q 18.3125 48.734375 21.84375 45.5625 
Q 25.390625 42.390625 31.78125 42.390625 
Q 38.140625 42.390625 41.71875 45.5625 
Q 45.3125 48.734375 45.3125 54.390625 
Q 45.3125 60.0625 41.71875 63.234375 
Q 38.140625 66.40625 31.78125 66.40625 
Q 25.390625 66.40625 21.84375 63.234375 
Q 18.3125 60.0625 18.3125 54.390625 
z
" id="DejaVuSans-56"/>
       </defs>
       <use xlink:href="#DejaVuSans-48"/>
       <use x="63.623047" xlink:href="#DejaVuSans-46"/>
       <use x="95.410156" xlink:href="#DejaVuSans-56"/>
      </g>
     </g>
    </g>
    <g id="ytick_6">
     <g id="line2d_12">
      <g>
       <use style="stroke:#000000;stroke-width:0.8;" x="57.6" xlink:href="#m4cae728a09" y="53.568"/>
      </g>
     </g>
     <g id="text_13">
      <!-- 1.0 -->
      <g transform="translate(34.696875 57.367219)scale(0.1 -0.1)">
       <use xlink:href="#DejaVuSans-49"/>
       <use x="63.623047" xlink:href="#DejaVuSans-46"/>
       <use x="95.410156" xlink:href="#DejaVuSans-48"/>
      </g>
     </g>
    </g>
   </g>
   <g id="line2d_13">
    <path clip-path="url(#p737f3ba39e)" d="M 73.832727 174.620416 
L 76.690831 179.728871 
L 79.678848 184.609131 
L 82.666865 189.059619 
L 85.654882 193.118184 
L 88.772812 196.972649 
L 91.890743 200.473617 
L 95.138588 203.77948 
L 98.386432 206.77015 
L 101.764191 209.57836 
L 105.271863 212.200815 
L 108.909449 214.636662 
L 112.676949 216.887259 
L 116.574362 218.955917 
L 120.731603 220.904832 
L 125.018758 222.669261 
L 129.56574 224.30237 
L 134.502464 225.834376 
L 139.699016 227.213795 
L 145.415222 228.496359 
L 151.651084 229.660227 
L 158.4066 230.692392 
L 165.9416 231.616301 
L 174.51591 232.436864 
L 184.259443 233.140392 
L 195.691856 233.736676 
L 209.462717 234.224705 
L 226.871164 234.607803 
L 250.255646 234.88473 
L 285.592195 235.058587 
L 355.225983 235.136351 
L 398.487273 235.143919 
L 398.487273 235.143919 
" style="fill:none;stroke:#1f77b4;stroke-linecap:square;stroke-width:1.5;"/>
   </g>
   <g id="line2d_14">
    <path clip-path="url(#p737f3ba39e)" d="M 73.832727 53.568 
L 73.962641 54.657472 
L 74.222469 60.421912 
L 74.61221 77.478065 
L 75.131865 113.241848 
L 77.210486 279.695801 
L 77.600227 292.526352 
L 77.860055 295.488 
L 77.989968 295.249349 
L 78.249796 291.378357 
L 78.509623 283.174261 
L 78.899365 263.61634 
L 79.548934 216.799144 
L 80.977985 108.128845 
L 81.497641 86.621035 
L 81.757468 81.848743 
L 81.887382 81.061664 
L 82.017296 81.351685 
L 82.277123 85.131178 
L 82.666865 98.402242 
L 83.18652 128.152786 
L 84.095916 198.802332 
L 85.005313 263.896629 
L 85.524968 286.572754 
L 85.784795 292.349159 
L 86.044623 294.115914 
L 86.174537 293.481283 
L 86.434364 289.236053 
L 86.824106 275.902422 
L 87.343761 247.377077 
L 89.422381 115.002413 
L 89.812123 105.59753 
L 90.07195 103.973736 
L 90.201864 104.587694 
L 90.461692 108.62518 
L 90.851433 121.300438 
L 91.371088 148.536102 
L 92.540312 229.417558 
L 93.189881 267.57952 
L 93.709536 286.308984 
L 93.969364 290.681164 
L 94.099278 291.535997 
L 94.229191 291.49531 
L 94.359105 290.564353 
L 94.618933 286.097046 
L 95.008674 273.351285 
L 95.528329 247.186812 
L 97.477036 135.468632 
L 97.866777 125.686746 
L 98.126605 123.21344 
L 98.256519 123.234639 
L 98.386432 124.094052 
L 98.64626 128.276031 
L 99.036001 140.301816 
L 99.555656 165.174095 
L 101.634277 278.537284 
L 102.024018 286.807765 
L 102.283846 288.451609 
L 102.41376 288.088303 
L 102.673587 285.030049 
L 103.063329 274.960687 
L 103.582984 253.006208 
L 104.752208 187.67707 
L 105.401777 157.218008 
L 105.921432 142.720247 
L 106.181259 139.627277 
L 106.311173 139.18635 
L 106.441087 139.488159 
L 106.700915 142.292292 
L 107.090656 151.705529 
L 107.610311 172.453339 
L 108.649621 228.250245 
L 109.429104 265.295861 
L 109.948759 280.319115 
L 110.208587 283.965831 
L 110.3385 284.753213 
L 110.468414 284.841767 
L 110.598328 284.234156 
L 110.858156 280.975859 
L 111.247897 271.32658 
L 111.767552 251.173476 
L 113.846173 159.888174 
L 114.235914 153.66682 
L 114.495742 152.735288 
L 114.625655 153.252601 
L 114.885483 156.218019 
L 115.275224 165.195931 
L 115.794879 184.184883 
L 117.8735 272.880681 
L 118.263241 279.641637 
L 118.523069 281.141313 
L 118.652983 280.966112 
L 118.91281 278.78962 
L 119.302552 271.212555 
L 119.822207 254.345971 
L 120.861517 208.961589 
L 121.641 179.118113 
L 122.160655 167.323916 
L 122.420482 164.64561 
L 122.550396 164.167177 
L 122.68031 164.268597 
L 122.940138 166.194132 
L 123.199965 170.33129 
L 123.589706 180.270675 
L 124.239275 204.290318 
L 125.668327 261.419678 
L 126.187982 273.472961 
L 126.44781 276.509037 
L 126.707637 277.388263 
L 126.837551 277.011148 
L 127.097379 274.655454 
L 127.48712 267.37249 
L 128.006775 251.874606 
L 130.085396 179.982847 
L 130.475137 174.790955 
L 130.734965 173.830257 
L 130.864878 174.11749 
L 131.124706 176.20474 
L 131.514447 182.900535 
L 132.034102 197.397681 
L 133.073413 235.842179 
L 133.852895 260.988386 
L 134.37255 270.954054 
L 134.632378 273.252063 
L 134.762292 273.684931 
L 134.892206 273.635984 
L 135.022119 273.107989 
L 135.281947 270.649834 
L 135.671688 263.708614 
L 136.191343 249.515033 
L 138.14005 188.914068 
L 138.529792 183.546524 
L 138.789619 182.14655 
L 138.919533 182.123631 
L 139.049447 182.551972 
L 139.309274 184.734934 
L 139.699016 191.107835 
L 140.218671 204.367749 
L 142.297291 264.967671 
L 142.687033 269.355431 
L 142.94686 270.198974 
L 143.076774 269.983033 
L 143.336602 268.296362 
L 143.726343 262.815467 
L 144.245998 250.914742 
L 145.415222 215.543681 
L 146.064791 199.02065 
L 146.584446 191.109716 
L 146.844274 189.390403 
L 146.974187 189.125777 
L 147.104101 189.26097 
L 147.363929 190.716091 
L 147.75367 195.702935 
L 148.273325 206.768555 
L 149.312636 236.620334 
L 150.092118 256.446662 
L 150.611773 264.465992 
L 150.871601 266.397164 
L 151.001515 266.805436 
L 151.131429 266.837707 
L 151.261342 266.495361 
L 151.52117 264.71109 
L 151.910911 259.471232 
L 152.430566 248.559915 
L 154.509187 199.119571 
L 154.898928 195.706145 
L 155.158756 195.161286 
L 155.28867 195.418042 
L 155.548497 196.971097 
L 155.938239 201.740188 
L 156.457894 211.880718 
L 158.536514 259.369048 
L 158.926256 262.971765 
L 159.186083 263.75568 
L 159.315997 263.649906 
L 159.575825 262.455605 
L 159.965566 258.342804 
L 160.485221 249.216483 
L 161.524531 224.67978 
L 162.304014 208.522051 
L 162.823669 202.106145 
L 163.083497 200.629972 
L 163.21341 200.355106 
L 163.343324 200.392353 
L 163.603152 201.39426 
L 163.862979 203.587047 
L 164.252721 208.887366 
L 164.90229 221.739323 
L 166.331341 252.354886 
L 166.850996 258.804327 
L 167.110824 260.42073 
L 167.370652 260.876761 
L 167.500565 260.665292 
L 167.760393 259.380428 
L 168.150134 255.434647 
L 168.669789 247.056631 
L 170.74841 208.174542 
L 171.138151 205.338826 
L 171.397979 204.793971 
L 171.527893 204.934698 
L 171.78772 206.030583 
L 172.177462 209.594145 
L 172.697117 217.346244 
L 173.736427 237.952022 
L 174.51591 251.436251 
L 175.035565 256.772033 
L 175.295392 257.995916 
L 175.425306 258.22257 
L 175.55522 258.18996 
L 175.815047 257.355368 
L 176.074875 255.534486 
L 176.464616 251.141945 
L 177.114185 240.519939 
L 178.543237 215.401982 
L 179.062892 210.211096 
L 179.32272 208.956144 
L 179.582547 208.665627 
L 179.712461 208.885049 
L 179.972289 210.03794 
L 180.36203 213.435879 
L 180.881685 220.532667 
L 182.960306 253.034494 
L 183.350047 255.381491 
L 183.609874 255.826285 
L 183.739788 255.705523 
L 183.999616 254.788649 
L 184.389357 251.824719 
L 184.909012 245.399107 
L 186.078236 226.303726 
L 186.727805 217.370705 
L 187.24746 213.078056 
L 187.507288 212.134788 
L 187.637202 211.983377 
L 187.767116 212.047165 
L 188.026943 212.812523 
L 188.416684 215.470523 
L 188.93634 221.393836 
L 189.97565 237.407294 
L 190.755133 248.049174 
L 191.274788 252.350095 
L 191.534615 253.382651 
L 191.794443 253.613197 
L 191.924357 253.4257 
L 192.184184 252.458856 
L 192.573926 249.628453 
L 193.093581 243.740477 
L 195.172201 217.039215 
L 195.561943 215.180551 
L 195.82177 214.872785 
L 195.951684 215.003732 
L 196.211512 215.825264 
L 196.601253 218.371223 
L 197.120908 223.803311 
L 199.199529 249.294087 
L 199.58927 251.225574 
L 199.849097 251.642838 
L 199.979011 251.583634 
L 200.238839 250.936289 
L 200.62858 248.715563 
L 201.148235 243.79271 
L 202.187546 230.557008 
L 202.967028 221.830852 
L 203.486683 218.355169 
L 203.746511 217.548978 
L 204.006339 217.409318 
L 204.266166 217.936874 
L 204.525994 219.10562 
L 204.915735 221.94194 
L 205.565304 228.834824 
L 206.994356 245.276627 
L 207.514011 248.739904 
L 207.773838 249.606521 
L 208.033666 249.848817 
L 208.16358 249.733458 
L 208.423407 249.038809 
L 208.813149 246.910102 
L 209.332804 242.392886 
L 211.411424 221.409583 
L 211.801166 219.869264 
L 212.060993 219.566445 
L 212.190907 219.637402 
L 212.450734 220.217745 
L 212.840476 222.121967 
L 213.360131 226.277483 
L 214.399441 237.342018 
L 215.178924 244.5874 
L 215.698579 247.453855 
L 215.958407 248.110379 
L 216.218234 248.212781 
L 216.478062 247.761573 
L 216.867803 246.102122 
L 217.387458 242.334562 
L 218.296855 233.359586 
L 219.206251 225.136946 
L 219.725906 222.328382 
L 219.985734 221.64521 
L 220.245561 221.481028 
L 220.505389 221.838527 
L 220.765217 222.699497 
L 221.154958 224.8463 
L 221.804527 230.154116 
L 223.363492 243.895027 
L 223.883147 246.253164 
L 224.142975 246.73612 
L 224.272889 246.793653 
L 224.532716 246.540484 
L 224.792544 245.810204 
L 225.182285 243.897603 
L 225.70194 240.127801 
L 227.520733 225.328944 
L 227.910475 223.737184 
L 228.170302 223.223145 
L 228.43013 223.16957 
L 228.689957 223.575138 
L 229.079699 224.996512 
L 229.599354 228.1734 
L 230.638664 236.775728 
L 231.418147 242.496728 
L 231.937802 244.809223 
L 232.19763 245.364178 
L 232.457457 245.487601 
L 232.717285 245.178102 
L 232.977112 244.451625 
L 233.366854 242.655362 
L 234.016423 238.240239 
L 235.575388 226.908007 
L 235.965129 225.33665 
L 236.354871 224.625225 
L 236.614698 224.658719 
L 236.874526 225.095665 
L 237.264267 226.458444 
L 237.783922 229.373134 
L 239.862543 243.074757 
L 240.252284 244.113641 
L 240.512112 244.337955 
L 240.771939 244.178548 
L 241.031767 243.644938 
L 241.421508 242.200118 
L 241.941163 239.302972 
L 243.88987 227.176 
L 244.279611 226.130691 
L 244.539439 225.870855 
L 244.799267 225.971742 
L 245.059094 226.426571 
L 245.448836 227.723116 
L 245.968491 230.389421 
L 248.047111 242.351393 
L 248.436853 243.172427 
L 248.69668 243.30288 
L 248.956508 243.094931 
L 249.216335 242.559657 
L 249.606077 241.199008 
L 250.255646 237.796599 
L 251.814611 228.89454 
L 252.334266 227.345619 
L 252.594094 227.020567 
L 252.853921 227.013497 
L 253.113749 227.322262 
L 253.50349 228.342002 
L 254.023145 230.572494 
L 255.062456 236.519485 
L 255.841938 240.416799 
L 256.361593 241.959448 
L 256.621421 242.312984 
L 256.881248 242.368354 
L 257.141076 242.125763 
L 257.530817 241.23285 
L 258.050473 239.204776 
L 258.959869 234.371029 
L 259.869266 229.938266 
L 260.388921 228.421155 
L 260.778662 227.969541 
L 261.03849 228.019075 
L 261.298317 228.345917 
L 261.688058 229.320008 
L 262.207714 231.363647 
L 264.286334 240.754826 
L 264.676076 241.43388 
L 264.935903 241.562421 
L 265.195731 241.426554 
L 265.455558 241.033853 
L 265.8453 240.004766 
L 266.494868 237.384631 
L 268.053834 230.395415 
L 268.573489 229.140782 
L 268.833317 228.861631 
L 269.093144 228.830272 
L 269.352972 229.046052 
L 269.742713 229.80747 
L 270.262368 231.513124 
L 271.301678 236.137725 
L 272.081161 239.215844 
L 272.600816 240.460881 
L 272.990558 240.822712 
L 273.250385 240.772615 
L 273.510213 240.49263 
L 273.899954 239.672545 
L 274.419609 237.965605 
L 276.49823 230.206795 
L 276.887971 229.661162 
L 277.147799 229.567056 
L 277.407626 229.692389 
L 277.797368 230.274835 
L 278.317023 231.687842 
L 279.096506 234.661266 
L 280.135816 238.531442 
L 280.655471 239.736765 
L 281.045212 240.147703 
L 281.30504 240.165556 
L 281.564867 239.978412 
L 281.954609 239.335455 
L 282.474264 237.908983 
L 283.513574 234.069236 
L 284.293057 231.532595 
L 284.812712 230.518193 
L 285.202453 230.233968 
L 285.462281 230.28648 
L 285.852022 230.719278 
L 286.241764 231.535312 
L 286.891333 233.524395 
L 288.320384 238.280034 
L 288.840039 239.283508 
L 289.229781 239.593208 
L 289.489608 239.57259 
L 289.749436 239.371903 
L 290.139177 238.755835 
L 290.658832 237.447226 
L 292.737453 231.353812 
L 293.127194 230.902628 
L 293.387022 230.811458 
L 293.646849 230.891711 
L 294.036591 231.321749 
L 294.556246 232.398467 
L 295.335728 234.701616 
L 296.375039 237.744814 
L 296.894694 238.712564 
L 297.284435 239.057127 
L 297.544263 239.087452 
L 297.80409 238.957406 
L 298.193832 238.477518 
L 298.713487 237.386556 
L 299.752797 234.399977 
L 300.53228 232.396062 
L 301.051935 231.577266 
L 301.441676 231.332312 
L 301.701504 231.357687 
L 302.091245 231.673315 
L 302.6109 232.554953 
L 303.390383 234.539975 
L 304.559607 237.553817 
L 305.079262 238.361542 
L 305.469004 238.624526 
L 305.858745 238.568934 
L 306.248486 238.203553 
L 306.768141 237.300962 
L 307.677538 235.03952 
L 308.586934 232.869121 
L 309.10659 232.07768 
L 309.496331 231.802078 
L 309.886072 231.825233 
L 310.275814 232.141592 
L 310.795469 232.961257 
L 311.574951 234.744431 
L 312.744175 237.367732 
L 313.263831 238.03853 
L 313.653572 238.233966 
L 314.043313 238.147523 
L 314.433055 237.790304 
L 314.95271 236.956713 
L 315.862106 234.935967 
L 316.771503 233.052721 
L 317.291158 232.392832 
L 317.680899 232.183703 
L 318.070641 232.239239 
L 318.460382 232.551382 
L 318.980037 233.310345 
L 319.889434 235.19558 
L 320.79883 236.992132 
L 321.318485 237.641482 
L 321.708227 237.863293 
L 322.097968 237.83681 
L 322.487709 237.567366 
L 323.007364 236.879665 
L 323.786847 235.394806 
L 324.956071 233.226986 
L 325.475726 232.679617 
L 325.865468 232.525463 
L 326.255209 232.605397 
L 326.64495 232.909531 
L 327.164605 233.6097 
L 328.203916 235.543231 
L 328.983398 236.851321 
L 329.503054 237.392033 
L 329.892795 237.559323 
L 330.282536 237.506741 
L 330.672278 237.241611 
L 331.191933 236.605283 
L 332.101329 235.036757 
L 333.010726 233.552644 
L 333.530381 233.021583 
L 333.920122 232.844432 
L 334.309864 232.8736 
L 334.699605 233.104062 
L 335.21926 233.682433 
L 336.128657 235.144474 
L 337.167967 236.715399 
L 337.687622 237.163265 
L 338.077363 237.285541 
L 338.467105 237.213421 
L 338.98676 236.832439 
L 339.636329 235.998436 
L 341.325208 233.545892 
L 341.844863 233.176144 
L 342.234604 233.104033 
L 342.624346 233.214172 
L 343.144001 233.621583 
L 343.923484 234.635879 
L 345.352535 236.585426 
L 345.87219 236.954161 
L 346.391845 237.029656 
L 346.911501 236.804636 
L 347.431156 236.319372 
L 348.340552 235.102454 
L 349.379862 233.804937 
L 349.899518 233.439554 
L 350.419173 233.347428 
L 350.938828 233.538835 
L 351.458483 233.979142 
L 352.36788 235.112481 
L 353.40719 236.350187 
L 354.056759 236.76361 
L 354.576414 236.803471 
L 355.096069 236.579551 
L 355.745638 235.992372 
L 357.824258 233.741982 
L 358.343914 233.560509 
L 358.863569 233.630751 
L 359.383224 233.93769 
L 360.162707 234.719771 
L 361.591758 236.25178 
L 362.241327 236.590453 
L 362.760982 236.601945 
L 363.280637 236.382277 
L 363.930206 235.843993 
L 366.008827 233.881151 
L 366.528482 233.742501 
L 367.048137 233.826499 
L 367.697706 234.215926 
L 368.607102 235.094057 
L 369.776327 236.158216 
L 370.425895 236.433511 
L 370.945551 236.422723 
L 371.465206 236.2097 
L 372.244688 235.598745 
L 373.933568 234.130994 
L 374.583137 233.912827 
L 375.102792 233.957586 
L 375.752361 234.27117 
L 376.661757 235.028455 
L 377.830981 235.994478 
L 378.48055 236.269499 
L 379.000205 236.287973 
L 379.649774 236.059011 
L 380.429257 235.503838 
L 381.988222 234.289968 
L 382.637791 234.066429 
L 383.28736 234.110045 
L 383.936929 234.40495 
L 384.976239 235.191204 
L 386.015549 235.923667 
L 386.665118 236.148152 
L 387.314687 236.122649 
L 387.964256 235.858306 
L 389.003567 235.127252 
L 390.172791 234.366629 
L 390.822359 234.187019 
L 391.471928 234.244488 
L 392.251411 234.59621 
L 394.719773 236.019252 
L 395.369342 236.023906 
L 396.018911 235.813453 
L 397.058221 235.18302 
L 398.227445 234.489989 
L 398.487273 234.39357 
L 398.487273 234.39357 
" style="fill:none;stroke:#ff7f0e;stroke-linecap:square;stroke-width:1.5;"/>
   </g>
   <g id="line2d_15">
    <path clip-path="url(#p737f3ba39e)" d="M 73.832727 53.568 
L 76.041262 69.157498 
L 78.249796 83.251891 
L 80.588244 96.721616 
L 82.926692 108.85879 
L 85.26514 119.809633 
L 87.603588 129.702972 
L 89.942036 138.652431 
L 92.280485 146.758323 
L 94.618933 154.109307 
L 97.087295 161.136234 
L 99.555656 167.490818 
L 102.024018 173.244828 
L 104.49238 178.461578 
L 107.090656 183.433861 
L 109.688932 187.930282 
L 112.287207 192.001485 
L 115.015397 195.867397 
L 117.743586 199.359208 
L 120.601689 202.659596 
L 123.589706 205.761737 
L 126.577723 208.547632 
L 129.695654 211.155626 
L 132.943499 213.584707 
L 136.321257 215.836139 
L 139.828929 217.913126 
L 143.596429 219.884356 
L 147.623756 221.73248 
L 151.780997 223.396978 
L 156.32798 224.9741 
L 161.13479 226.405015 
L 166.331341 227.720657 
L 172.047548 228.935393 
L 178.283409 230.030985 
L 185.298754 231.030875 
L 193.093581 231.911679 
L 201.927718 232.68226 
L 212.190907 233.348586 
L 224.402803 233.909893 
L 239.342888 234.363511 
L 258.440214 234.709571 
L 284.942626 234.951902 
L 327.554347 235.093502 
L 398.487273 235.140508 
L 398.487273 235.140508 
" style="fill:none;stroke:#2ca02c;stroke-linecap:square;stroke-width:1.5;"/>
   </g>
   <g id="patch_3">
    <path d="M 57.6 307.584 
L 57.6 41.472 
" style="fill:none;stroke:#000000;stroke-linecap:square;stroke-linejoin:miter;stroke-width:0.8;"/>
   </g>
   <g id="patch_4">
    <path d="M 414.72 307.584 
L 414.72 41.472 
" style="fill:none;stroke:#000000;stroke-linecap:square;stroke-linejoin:miter;stroke-width:0.8;"/>
   </g>
   <g id="patch_5">
    <path d="M 57.6 307.584 
L 414.72 307.584 
" style="fill:none;stroke:#000000;stroke-linecap:square;stroke-linejoin:miter;stroke-width:0.8;"/>
   </g>
   <g id="patch_6">
    <path d="M 57.6 41.472 
L 414.72 41.472 
" style="fill:none;stroke:#000000;stroke-linecap:square;stroke-linejoin:miter;stroke-width:0.8;"/>
   </g>
   <g id="legend_1">
    <g id="patch_7">
     <path d="M 346.12 96.048563 
L 407.72 96.048563 
Q 409.72 96.048563 409.72 94.048563 
L 409.72 48.472 
Q 409.72 46.472 407.72 46.472 
L 346.12 46.472 
Q 344.12 46.472 344.12 48.472 
L 344.12 94.048563 
Q 344.12 96.048563 346.12 96.048563 
z
" style="fill:#ffffff;opacity:0.8;stroke:#cccccc;stroke-linejoin:miter;"/>
    </g>
    <g id="line2d_16">
     <path d="M 348.12 54.570438 
L 368.12 54.570438 
" style="fill:none;stroke:#1f77b4;stroke-linecap:square;stroke-width:1.5;"/>
    </g>
    <g id="line2d_17"/>
    <g id="text_14">
     <!-- $P_{up}$ -->
     <g transform="translate(376.12 58.070438)scale(0.1 -0.1)">
      <defs>
       <path d="M 16.890625 72.90625 
L 39.703125 72.90625 
Q 49.65625 72.90625 54.875 68.265625 
Q 60.109375 63.625 60.109375 54.6875 
Q 60.109375 42.671875 52.390625 35.984375 
Q 44.671875 29.296875 30.71875 29.296875 
L 18.3125 29.296875 
L 12.59375 0 
L 2.6875 0 
z
M 25.203125 64.796875 
L 19.921875 37.40625 
L 32.328125 37.40625 
Q 40.71875 37.40625 45.203125 41.703125 
Q 49.703125 46 49.703125 54 
Q 49.703125 59.125 46.65625 61.953125 
Q 43.609375 64.796875 38.09375 64.796875 
z
" id="DejaVuSans-Oblique-80"/>
       <path d="M 6.6875 21.6875 
L 13.09375 54.6875 
L 22.125 54.6875 
L 15.71875 22.015625 
Q 15.234375 19.625 15.015625 17.921875 
Q 14.796875 16.21875 14.796875 15.09375 
Q 14.796875 10.9375 17.328125 8.65625 
Q 19.875 6.390625 24.515625 6.390625 
Q 31.734375 6.390625 37 11.265625 
Q 42.28125 16.15625 43.890625 24.421875 
L 49.90625 54.6875 
L 58.890625 54.6875 
L 48.296875 0 
L 39.3125 0 
L 41.109375 8.59375 
Q 37.3125 3.8125 32.0625 1.1875 
Q 26.8125 -1.421875 20.90625 -1.421875 
Q 13.71875 -1.421875 9.71875 2.515625 
Q 5.71875 6.453125 5.71875 13.484375 
Q 5.71875 14.9375 5.953125 17.140625 
Q 6.203125 19.34375 6.6875 21.6875 
z
" id="DejaVuSans-Oblique-117"/>
       <path d="M 49.609375 33.6875 
Q 49.609375 40.875 46.484375 44.671875 
Q 43.359375 48.484375 37.5 48.484375 
Q 33.5 48.484375 29.859375 46.4375 
Q 26.21875 44.390625 23.390625 40.484375 
Q 20.609375 36.625 18.9375 31.15625 
Q 17.28125 25.6875 17.28125 20.3125 
Q 17.28125 13.484375 20.40625 9.796875 
Q 23.53125 6.109375 29.296875 6.109375 
Q 33.546875 6.109375 37.1875 8.109375 
Q 40.828125 10.109375 43.40625 13.921875 
Q 46.1875 17.921875 47.890625 23.34375 
Q 49.609375 28.765625 49.609375 33.6875 
z
M 21.78125 46.390625 
Q 25.390625 51.125 30.296875 53.5625 
Q 35.203125 56 41.21875 56 
Q 49.609375 56 54.25 50.5 
Q 58.890625 45.015625 58.890625 35.109375 
Q 58.890625 27 56 19.65625 
Q 53.125 12.3125 47.703125 6.5 
Q 44.09375 2.640625 39.546875 0.609375 
Q 35.015625 -1.421875 29.984375 -1.421875 
Q 24.171875 -1.421875 20.21875 1 
Q 16.265625 3.421875 14.3125 8.203125 
L 8.6875 -20.796875 
L -0.296875 -20.796875 
L 14.40625 54.6875 
L 23.390625 54.6875 
z
" id="DejaVuSans-Oblique-112"/>
      </defs>
      <use transform="translate(0 0.09375)" xlink:href="#DejaVuSans-Oblique-80"/>
      <use transform="translate(60.302734 -16.3125)scale(0.7)" xlink:href="#DejaVuSans-Oblique-117"/>
      <use transform="translate(104.667969 -16.3125)scale(0.7)" xlink:href="#DejaVuSans-Oblique-112"/>
     </g>
    </g>
    <g id="line2d_18">
     <path d="M 348.12 70.268875 
L 368.12 70.268875 
" style="fill:none;stroke:#ff7f0e;stroke-linecap:square;stroke-width:1.5;"/>
    </g>
    <g id="line2d_19"/>
    <g id="text_15">
     <!-- $F$ -->
     <g transform="translate(376.12 73.768875)scale(0.1 -0.1)">
      <defs>
       <path d="M 16.890625 72.90625 
L 58.6875 72.90625 
L 57.078125 64.59375 
L 25.09375 64.59375 
L 20.90625 43.109375 
L 49.8125 43.109375 
L 48.1875 34.8125 
L 19.28125 34.8125 
L 12.5 0 
L 2.6875 0 
z
" id="DejaVuSans-Oblique-70"/>
      </defs>
      <use transform="translate(0 0.09375)" xlink:href="#DejaVuSans-Oblique-70"/>
     </g>
    </g>
    <g id="line2d_20">
     <path d="M 348.12 86.448563 
L 368.12 86.448563 
" style="fill:none;stroke:#2ca02c;stroke-linecap:square;stroke-width:1.5;"/>
    </g>
    <g id="line2d_21"/>
    <g id="text_16">
     <!-- Tr$(\rho^2)$ -->
     <g transform="translate(376.12 89.948563)scale(0.1 -0.1)">
      <defs>
       <path d="M 41.109375 46.296875 
Q 39.59375 47.171875 37.8125 47.578125 
Q 36.03125 48 33.890625 48 
Q 26.265625 48 22.1875 43.046875 
Q 18.109375 38.09375 18.109375 28.8125 
L 18.109375 0 
L 9.078125 0 
L 9.078125 54.6875 
L 18.109375 54.6875 
L 18.109375 46.1875 
Q 20.953125 51.171875 25.484375 53.578125 
Q 30.03125 56 36.53125 56 
Q 37.453125 56 38.578125 55.875 
Q 39.703125 55.765625 41.0625 55.515625 
z
" id="DejaVuSans-114"/>
       <path d="M 31 75.875 
Q 24.46875 64.65625 21.28125 53.65625 
Q 18.109375 42.671875 18.109375 31.390625 
Q 18.109375 20.125 21.3125 9.0625 
Q 24.515625 -2 31 -13.1875 
L 23.1875 -13.1875 
Q 15.875 -1.703125 12.234375 9.375 
Q 8.59375 20.453125 8.59375 31.390625 
Q 8.59375 42.28125 12.203125 53.3125 
Q 15.828125 64.359375 23.1875 75.875 
z
" id="DejaVuSans-40"/>
       <path d="M 18.796875 44.921875 
Q 22.703125 49.90625 30.953125 54.296875 
Q 34.1875 56 43.0625 56 
Q 53.03125 56 57.71875 48.09375 
Q 62.40625 40.1875 59.90625 27.296875 
Q 57.375 14.40625 49.609375 6.484375 
Q 41.84375 -1.421875 31.890625 -1.421875 
Q 25.875 -1.421875 22.015625 0.984375 
Q 18.171875 3.328125 16.3125 8.203125 
L 10.640625 -20.796875 
L 1.609375 -20.796875 
L 10.890625 26.8125 
Q 13.09375 38.09375 18.796875 44.921875 
z
M 50.59375 27.296875 
Q 52.484375 37.203125 49.515625 42.875 
Q 46.53125 48.484375 39.40625 48.484375 
Q 32.28125 48.484375 27.09375 42.875 
Q 21.921875 37.203125 20.015625 27.296875 
Q 18.0625 17.390625 21.046875 11.71875 
Q 24.03125 6.109375 31.15625 6.109375 
Q 38.28125 6.109375 43.453125 11.71875 
Q 48.640625 17.390625 50.59375 27.296875 
z
" id="DejaVuSans-Oblique-961"/>
       <path d="M 8.015625 75.875 
L 15.828125 75.875 
Q 23.140625 64.359375 26.78125 53.3125 
Q 30.421875 42.28125 30.421875 31.390625 
Q 30.421875 20.453125 26.78125 9.375 
Q 23.140625 -1.703125 15.828125 -13.1875 
L 8.015625 -13.1875 
Q 14.5 -2 17.703125 9.0625 
Q 20.90625 20.125 20.90625 31.390625 
Q 20.90625 42.671875 17.703125 53.65625 
Q 14.5 64.65625 8.015625 75.875 
z
" id="DejaVuSans-41"/>
      </defs>
      <use transform="translate(0 0.765625)" xlink:href="#DejaVuSans-84"/>
      <use transform="translate(61.083984 0.765625)" xlink:href="#DejaVuSans-114"/>
      <use transform="translate(102.197266 0.765625)" xlink:href="#DejaVuSans-40"/>
      <use transform="translate(141.210938 0.765625)" xlink:href="#DejaVuSans-Oblique-961"/>
      <use transform="translate(209.337396 39.046875)scale(0.7)" xlink:href="#DejaVuSans-50"/>
      <use transform="translate(256.607904 0.765625)" xlink:href="#DejaVuSans-41"/>
     </g>
    </g>
   </g>
  </g>
 </g>
 <defs>
  <clipPath id="p737f3ba39e">
   <rect height="266.112" width="357.12" x="57.6" y="41.472"/>
  </clipPath>
 </defs>
</svg>
